<mxfile>
    <diagram id="eF7uACuX7u5tNhm1PyR7" name="Page-1">
        <mxGraphModel dx="1004" dy="665" grid="1" gridSize="10" guides="1" tooltips="1" connect="1" arrows="1" fold="1" page="1" pageScale="1" pageWidth="3300" pageHeight="4681" math="0" shadow="0">
            <root>
                <mxCell id="0"/>
                <mxCell id="1" parent="0"/>
                <mxCell id="3" value="SideCar Proxy" style="rounded=0;whiteSpace=wrap;html=1;" parent="1" vertex="1">
                    <mxGeometry x="790" y="967" width="440" height="130" as="geometry"/>
                </mxCell>
                <mxCell id="4" value="Schema Change&amp;nbsp;" style="rounded=0;whiteSpace=wrap;html=1;" parent="1" vertex="1">
                    <mxGeometry x="790" y="1217" width="440" height="80" as="geometry"/>
                </mxCell>
                <mxCell id="5" value="App" style="rounded=0;whiteSpace=wrap;html=1;" parent="1" vertex="1">
                    <mxGeometry x="790" y="1437" width="440" height="80" as="geometry"/>
                </mxCell>
                <mxCell id="6" style="edgeStyle=orthogonalEdgeStyle;rounded=0;orthogonalLoop=1;jettySize=auto;html=1;shadow=0;strokeColor=#000000;fillColor=none;" parent="1" source="7" edge="1">
                    <mxGeometry relative="1" as="geometry">
                        <mxPoint x="1010" y="967" as="targetPoint"/>
                        <Array as="points">
                            <mxPoint x="1010" y="622"/>
                        </Array>
                    </mxGeometry>
                </mxCell>
                <mxCell id="7" value="API Server" style="rounded=0;whiteSpace=wrap;html=1;" parent="1" vertex="1">
                    <mxGeometry x="1738" y="587" width="250" height="70" as="geometry"/>
                </mxCell>
                <mxCell id="8" style="edgeStyle=orthogonalEdgeStyle;rounded=0;orthogonalLoop=1;jettySize=auto;html=1;shadow=0;strokeColor=#000000;fillColor=none;entryX=0;entryY=0.75;entryDx=0;entryDy=0;" parent="1" target="7" edge="1">
                    <mxGeometry relative="1" as="geometry">
                        <mxPoint x="1750" y="267" as="targetPoint"/>
                        <mxPoint x="1740" y="1012" as="sourcePoint"/>
                        <Array as="points">
                            <mxPoint x="1610" y="1012"/>
                            <mxPoint x="1610" y="639"/>
                        </Array>
                    </mxGeometry>
                </mxCell>
                <mxCell id="9" style="edgeStyle=orthogonalEdgeStyle;rounded=0;orthogonalLoop=1;jettySize=auto;html=1;shadow=0;strokeColor=#000000;fillColor=none;entryX=0.5;entryY=0;entryDx=0;entryDy=0;entryPerimeter=0;" parent="1" target="29" edge="1">
                    <mxGeometry relative="1" as="geometry">
                        <mxPoint x="1990" y="1012" as="sourcePoint"/>
                        <mxPoint x="2940" y="1347" as="targetPoint"/>
                        <Array as="points">
                            <mxPoint x="2290" y="1012"/>
                            <mxPoint x="2290" y="1167"/>
                            <mxPoint x="2725" y="1167"/>
                        </Array>
                    </mxGeometry>
                </mxCell>
                <mxCell id="11" style="edgeStyle=orthogonalEdgeStyle;rounded=0;orthogonalLoop=1;jettySize=auto;html=1;shadow=0;strokeColor=#0000CC;fillColor=none;entryX=0.047;entryY=-0.006;entryDx=0;entryDy=0;entryPerimeter=0;" parent="1" target="7" edge="1">
                    <mxGeometry relative="1" as="geometry">
                        <mxPoint x="1760" y="577" as="targetPoint"/>
                        <mxPoint x="1740" y="1037" as="sourcePoint"/>
                        <Array as="points">
                            <mxPoint x="1460" y="1037"/>
                            <mxPoint x="1460" y="547"/>
                            <mxPoint x="1750" y="547"/>
                        </Array>
                    </mxGeometry>
                </mxCell>
                <mxCell id="13" style="edgeStyle=orthogonalEdgeStyle;rounded=0;orthogonalLoop=1;jettySize=auto;html=1;shadow=0;strokeColor=#000000;fillColor=none;" parent="1" edge="1">
                    <mxGeometry relative="1" as="geometry">
                        <mxPoint x="1860" y="657" as="targetPoint"/>
                        <mxPoint x="1860" y="977" as="sourcePoint"/>
                        <Array as="points">
                            <mxPoint x="1860" y="857"/>
                            <mxPoint x="1860" y="857"/>
                        </Array>
                    </mxGeometry>
                </mxCell>
                <mxCell id="17" value="3). Apply EPF yaml&amp;nbsp; to cluster&lt;br&gt;&amp;nbsp; &amp;nbsp; dbversion&amp;nbsp; &amp;nbsp; &amp;nbsp;x --&amp;gt; y&lt;br&gt;&amp;nbsp; &amp;nbsp; &amp;nbsp;appversion&amp;nbsp; &amp;nbsp;a --&amp;gt; b&amp;nbsp;" style="text;html=1;align=center;verticalAlign=middle;resizable=0;points=[];autosize=1;" parent="1" vertex="1">
                    <mxGeometry x="1928" y="507" width="170" height="50" as="geometry"/>
                </mxCell>
                <mxCell id="18" value="4). Update EPF yaml&amp;nbsp; in the Etcd" style="text;html=1;align=center;verticalAlign=middle;resizable=0;points=[];autosize=1;" parent="1" vertex="1">
                    <mxGeometry x="2088" y="667" width="190" height="20" as="geometry"/>
                </mxCell>
                <mxCell id="19" value="Etcd" style="shape=cylinder3;whiteSpace=wrap;html=1;boundedLbl=1;backgroundOutline=1;size=15;strokeColor=#000000;fillColor=none;" parent="1" vertex="1">
                    <mxGeometry x="2348" y="727" width="62" height="70" as="geometry"/>
                </mxCell>
                <mxCell id="20" value="1) Watch operator &lt;br&gt;change the EPF Yaml" style="text;html=1;align=center;verticalAlign=middle;resizable=0;points=[];autosize=1;" parent="1" vertex="1">
                    <mxGeometry x="1860" y="807" width="130" height="30" as="geometry"/>
                </mxCell>
                <mxCell id="21" value="2) watch operator EPF" style="text;html=1;align=center;verticalAlign=middle;resizable=0;points=[];autosize=1;" parent="1" vertex="1">
                    <mxGeometry x="2113" y="757" width="140" height="20" as="geometry"/>
                </mxCell>
                <mxCell id="22" value="5). Operator send the request to &lt;br&gt;sidecar proxy through the API server&lt;br&gt;store the requests" style="text;html=1;align=center;verticalAlign=middle;resizable=0;points=[];autosize=1;" parent="1" vertex="1">
                    <mxGeometry x="1610" y="787" width="210" height="50" as="geometry"/>
                </mxCell>
                <mxCell id="23" style="edgeStyle=orthogonalEdgeStyle;rounded=0;orthogonalLoop=1;jettySize=auto;html=1;shadow=0;strokeColor=#0000CC;fillColor=none;" parent="1" source="25" target="4" edge="1">
                    <mxGeometry relative="1" as="geometry">
                        <Array as="points">
                            <mxPoint x="1155" y="1197"/>
                            <mxPoint x="1010" y="1197"/>
                        </Array>
                    </mxGeometry>
                </mxCell>
                <mxCell id="24" style="edgeStyle=orthogonalEdgeStyle;rounded=0;orthogonalLoop=1;jettySize=auto;html=1;shadow=0;strokeColor=#0000CC;fillColor=none;entryX=1;entryY=0.5;entryDx=0;entryDy=0;" parent="1" source="25" target="5" edge="1">
                    <mxGeometry relative="1" as="geometry">
                        <mxPoint x="1270" y="1527" as="targetPoint"/>
                        <Array as="points">
                            <mxPoint x="1270" y="1032"/>
                            <mxPoint x="1270" y="1477"/>
                        </Array>
                    </mxGeometry>
                </mxCell>
                <mxCell id="25" value="Queue" style="shape=cylinder3;whiteSpace=wrap;html=1;boundedLbl=1;backgroundOutline=1;size=15;strokeColor=#000000;fillColor=none;" parent="1" vertex="1">
                    <mxGeometry x="1120" y="992" width="70" height="80" as="geometry"/>
                </mxCell>
                <mxCell id="26" value="" style="endArrow=classic;html=1;shadow=0;strokeColor=#000000;fillColor=none;" parent="1" target="25" edge="1">
                    <mxGeometry width="50" height="50" relative="1" as="geometry">
                        <mxPoint x="1010" y="967" as="sourcePoint"/>
                        <mxPoint x="1080" y="1067" as="targetPoint"/>
                    </mxGeometry>
                </mxCell>
                <mxCell id="27" value="6) Requst store to&amp;nbsp;&lt;br&gt;Proxy Server" style="text;html=1;align=center;verticalAlign=middle;resizable=0;points=[];autosize=1;" parent="1" vertex="1">
                    <mxGeometry x="1110" y="587" width="110" height="30" as="geometry"/>
                </mxCell>
                <mxCell id="28" value="7). send request db with&lt;br&gt;&amp;nbsp;app version and db version" style="text;html=1;align=center;verticalAlign=middle;resizable=0;points=[];autosize=1;" parent="1" vertex="1">
                    <mxGeometry x="2140" y="977" width="160" height="30" as="geometry"/>
                </mxCell>
                <mxCell id="29" value="Databse" style="shape=cylinder3;whiteSpace=wrap;html=1;boundedLbl=1;backgroundOutline=1;size=15;strokeColor=#000000;fillColor=none;" parent="1" vertex="1">
                    <mxGeometry x="2660" y="1397" width="130" height="100" as="geometry"/>
                </mxCell>
                <mxCell id="30" value="8) When update the database version x --&amp;gt; y fail the db.&lt;br&gt;Then downgrade the db version x" style="text;html=1;align=center;verticalAlign=middle;resizable=0;points=[];autosize=1;" parent="1" vertex="1">
                    <mxGeometry x="2790" y="1437" width="310" height="30" as="geometry"/>
                </mxCell>
                <mxCell id="31" value="" style="endArrow=block;dashed=1;endFill=0;endSize=12;html=1;shadow=0;strokeColor=#CC0066;fillColor=#FF0080;entryX=0.032;entryY=0.286;entryDx=0;entryDy=0;entryPerimeter=0;" parent="1" target="19" edge="1">
                    <mxGeometry width="160" relative="1" as="geometry">
                        <mxPoint x="1860" y="657" as="sourcePoint"/>
                        <mxPoint x="2338" y="717" as="targetPoint"/>
                        <Array as="points">
                            <mxPoint x="1860" y="647"/>
                            <mxPoint x="1880" y="647"/>
                            <mxPoint x="1898" y="647"/>
                            <mxPoint x="1898" y="747"/>
                            <mxPoint x="2300" y="747"/>
                        </Array>
                    </mxGeometry>
                </mxCell>
                <mxCell id="32" value="" style="endArrow=none;dashed=1;html=1;dashPattern=1 3;strokeWidth=2;shadow=0;fillColor=#FF0080;strokeColor=#1A1A1A;" parent="1" target="7" edge="1">
                    <mxGeometry width="50" height="50" relative="1" as="geometry">
                        <mxPoint x="1743" y="637" as="sourcePoint"/>
                        <mxPoint x="1743" y="617" as="targetPoint"/>
                        <Array as="points">
                            <mxPoint x="1753" y="637"/>
                            <mxPoint x="1753" y="622"/>
                        </Array>
                    </mxGeometry>
                </mxCell>
                <mxCell id="42" value="" style="endArrow=block;dashed=1;endFill=0;endSize=12;html=1;shadow=0;strokeColor=#0000FF;fillColor=none;entryX=0.2;entryY=0.015;entryDx=0;entryDy=0;entryPerimeter=0;exitX=0.048;exitY=0;exitDx=0;exitDy=0;exitPerimeter=0;" parent="1" source="7" target="3" edge="1">
                    <mxGeometry width="160" relative="1" as="geometry">
                        <mxPoint x="1840" y="237" as="sourcePoint"/>
                        <mxPoint x="890" y="957" as="targetPoint"/>
                        <Array as="points">
                            <mxPoint x="1750" y="597"/>
                            <mxPoint x="1760" y="597"/>
                            <mxPoint x="1760" y="537"/>
                            <mxPoint x="878" y="537"/>
                        </Array>
                    </mxGeometry>
                </mxCell>
                <mxCell id="43" value="" style="endArrow=block;dashed=1;endFill=0;endSize=12;html=1;shadow=0;strokeColor=#0000CC;fillColor=none;exitX=0.193;exitY=0;exitDx=0;exitDy=0;exitPerimeter=0;entryX=0;entryY=0;entryDx=0;entryDy=52.5;entryPerimeter=0;" parent="1" source="3" target="25" edge="1">
                    <mxGeometry width="160" relative="1" as="geometry">
                        <mxPoint x="860" y="997" as="sourcePoint"/>
                        <mxPoint x="1020" y="997" as="targetPoint"/>
                    </mxGeometry>
                </mxCell>
                <mxCell id="44" value="" style="endArrow=open;endFill=1;endSize=12;html=1;shadow=0;strokeColor=#0000CC;fillColor=none;exitX=0;exitY=0.615;exitDx=0;exitDy=0;exitPerimeter=0;entryX=0;entryY=0.25;entryDx=0;entryDy=0;" parent="1" source="3" target="5" edge="1">
                    <mxGeometry width="160" relative="1" as="geometry">
                        <mxPoint x="630" y="1065.8199999999997" as="sourcePoint"/>
                        <mxPoint x="680" y="1407" as="targetPoint"/>
                        <Array as="points">
                            <mxPoint x="670" y="1047"/>
                            <mxPoint x="670" y="1457"/>
                        </Array>
                    </mxGeometry>
                </mxCell>
                <mxCell id="45" value="10). Requst Pass&lt;br&gt;&amp;nbsp;to App" style="text;html=1;align=center;verticalAlign=middle;resizable=0;points=[];autosize=1;" parent="1" vertex="1">
                    <mxGeometry x="670" y="1170" width="110" height="30" as="geometry"/>
                </mxCell>
                <mxCell id="46" value="" style="endArrow=open;endFill=1;endSize=12;html=1;shadow=0;strokeColor=#0000CC;fillColor=none;entryX=0.065;entryY=-0.01;entryDx=0;entryDy=0;entryPerimeter=0;" parent="1" edge="1">
                    <mxGeometry width="160" relative="1" as="geometry">
                        <mxPoint x="821" y="497" as="sourcePoint"/>
                        <mxPoint x="820.6000000000004" y="965.6999999999998" as="targetPoint"/>
                    </mxGeometry>
                </mxCell>
                <mxCell id="47" value="New Requst" style="text;html=1;align=center;verticalAlign=middle;resizable=0;points=[];autosize=1;" parent="1" vertex="1">
                    <mxGeometry x="740" y="797" width="80" height="20" as="geometry"/>
                </mxCell>
                <mxCell id="48" value="11).&amp;nbsp; Check the Requst is put,post or delete&amp;nbsp;&lt;br&gt;then pass to Schema (But here, don't change the&lt;br&gt;request body)&amp;nbsp;&amp;nbsp;" style="text;html=1;align=center;verticalAlign=middle;resizable=0;points=[];autosize=1;" parent="1" vertex="1">
                    <mxGeometry x="870" y="1127" width="280" height="50" as="geometry"/>
                </mxCell>
                <mxCell id="49" value="13). Get requst directly&amp;nbsp;&lt;br&gt;pass to the App." style="text;html=1;align=center;verticalAlign=middle;resizable=0;points=[];autosize=1;" parent="1" vertex="1">
                    <mxGeometry x="1130" y="1327" width="140" height="30" as="geometry"/>
                </mxCell>
                <mxCell id="54" value="" style="endArrow=classic;html=1;shadow=0;strokeColor=#000000;fillColor=none;" parent="1" edge="1">
                    <mxGeometry width="50" height="50" relative="1" as="geometry">
                        <mxPoint x="1924.8999999999996" y="480" as="sourcePoint"/>
                        <mxPoint x="1924.8999999999996" y="587" as="targetPoint"/>
                        <Array as="points">
                            <mxPoint x="1924.9" y="560"/>
                        </Array>
                    </mxGeometry>
                </mxCell>
                <mxCell id="55" value="" style="endArrow=block;dashed=1;endFill=0;endSize=12;html=1;shadow=0;strokeColor=#000000;fillColor=none;entryX=0.145;entryY=0;entryDx=0;entryDy=4.35;entryPerimeter=0;" parent="1" target="19" edge="1">
                    <mxGeometry width="160" relative="1" as="geometry">
                        <mxPoint x="1924" y="588" as="sourcePoint"/>
                        <mxPoint x="2340" y="687" as="targetPoint"/>
                        <Array as="points">
                            <mxPoint x="1924" y="637"/>
                            <mxPoint x="2060" y="637"/>
                            <mxPoint x="2060" y="687"/>
                            <mxPoint x="2357" y="687"/>
                        </Array>
                    </mxGeometry>
                </mxCell>
                <mxCell id="56" value="" style="endArrow=block;dashed=1;endFill=0;endSize=12;html=1;shadow=0;strokeColor=#0000CC;fillColor=none;" parent="1" edge="1">
                    <mxGeometry width="160" relative="1" as="geometry">
                        <mxPoint x="820" y="967" as="sourcePoint"/>
                        <mxPoint x="790" y="1047" as="targetPoint"/>
                        <Array as="points">
                            <mxPoint x="820" y="1047"/>
                        </Array>
                    </mxGeometry>
                </mxCell>
                <mxCell id="57" value="" style="shape=ext;double=1;rounded=1;whiteSpace=wrap;html=1;strokeColor=#000000;fillColor=none;" parent="1" vertex="1">
                    <mxGeometry x="610" y="887" width="770" height="690" as="geometry"/>
                </mxCell>
                <mxCell id="58" value="" style="shape=ext;double=1;rounded=0;whiteSpace=wrap;html=1;strokeColor=#000000;fillColor=none;" parent="1" vertex="1">
                    <mxGeometry x="575" y="857" width="840" height="870" as="geometry"/>
                </mxCell>
                <mxCell id="59" value="Operator" style="rounded=0;whiteSpace=wrap;html=1;strokeColor=#000000;fillColor=none;" parent="1" vertex="1">
                    <mxGeometry x="1740" y="977" width="250" height="90" as="geometry"/>
                </mxCell>
                <mxCell id="60" value="" style="rounded=1;whiteSpace=wrap;html=1;strokeColor=#000000;fillColor=none;shadow=1;" parent="1" vertex="1">
                    <mxGeometry x="1690" y="927" width="342" height="220" as="geometry"/>
                </mxCell>
                <mxCell id="61" value="" style="rounded=0;whiteSpace=wrap;html=1;strokeColor=#000000;fillColor=none;shadow=1;" parent="1" vertex="1">
                    <mxGeometry x="1640" y="887" width="462" height="330" as="geometry"/>
                </mxCell>
                <mxCell id="62" value="" style="endArrow=none;html=1;shadow=0;strokeColor=#FF33FF;fillColor=none;entryX=0.5;entryY=1;entryDx=0;entryDy=0;entryPerimeter=0;" parent="1" target="29" edge="1">
                    <mxGeometry width="50" height="50" relative="1" as="geometry">
                        <mxPoint x="990" y="1517" as="sourcePoint"/>
                        <mxPoint x="2410" y="1647" as="targetPoint"/>
                        <Array as="points">
                            <mxPoint x="990" y="1517"/>
                            <mxPoint x="990" y="1567"/>
                            <mxPoint x="990" y="1627"/>
                            <mxPoint x="2405" y="1627"/>
                            <mxPoint x="2725" y="1627"/>
                        </Array>
                    </mxGeometry>
                </mxCell>
                <mxCell id="63" value="DB Conection" style="text;html=1;align=center;verticalAlign=middle;resizable=0;points=[];autosize=1;" parent="1" vertex="1">
                    <mxGeometry x="1770" y="1607" width="90" height="20" as="geometry"/>
                </mxCell>
                <mxCell id="64" value="Node" style="text;html=1;align=center;verticalAlign=middle;resizable=0;points=[];autosize=1;" parent="1" vertex="1">
                    <mxGeometry x="1242" y="837" width="40" height="20" as="geometry"/>
                </mxCell>
                <mxCell id="65" value="Pod" style="text;html=1;align=center;verticalAlign=middle;resizable=0;points=[];autosize=1;" parent="1" vertex="1">
                    <mxGeometry x="1170" y="867" width="40" height="20" as="geometry"/>
                </mxCell>
                <mxCell id="66" value="Pod" style="text;html=1;align=center;verticalAlign=middle;resizable=0;points=[];autosize=1;" parent="1" vertex="1">
                    <mxGeometry x="1960" y="907" width="40" height="20" as="geometry"/>
                </mxCell>
                <mxCell id="67" value="Node" style="text;html=1;align=center;verticalAlign=middle;resizable=0;points=[];autosize=1;" parent="1" vertex="1">
                    <mxGeometry x="2010" y="867" width="40" height="20" as="geometry"/>
                </mxCell>
                <mxCell id="68" value="" style="rounded=0;whiteSpace=wrap;html=1;shadow=1;strokeColor=#000000;fillColor=none;" parent="1" vertex="1">
                    <mxGeometry x="490" y="400" width="1980" height="1410" as="geometry"/>
                </mxCell>
                <mxCell id="69" value="cluster" style="text;html=1;align=center;verticalAlign=middle;resizable=0;points=[];autosize=1;" parent="1" vertex="1">
                    <mxGeometry x="2270" y="370" width="50" height="20" as="geometry"/>
                </mxCell>
                <mxCell id="70" value="9).Stop the requst&lt;br&gt;store in Queue" style="text;html=1;align=center;verticalAlign=middle;resizable=0;points=[];autosize=1;" parent="1" vertex="1">
                    <mxGeometry x="1460" y="807" width="110" height="30" as="geometry"/>
                </mxCell>
                <mxCell id="71" style="edgeStyle=orthogonalEdgeStyle;rounded=0;orthogonalLoop=1;jettySize=auto;html=1;shadow=0;strokeColor=#0000CC;fillColor=none;entryX=0.5;entryY=0;entryDx=0;entryDy=0;exitX=0.5;exitY=1;exitDx=0;exitDy=0;" parent="1" source="4" target="5" edge="1">
                    <mxGeometry relative="1" as="geometry">
                        <Array as="points"/>
                        <mxPoint x="1010" y="1300" as="sourcePoint"/>
                        <mxPoint x="1010" y="1430" as="targetPoint"/>
                    </mxGeometry>
                </mxCell>
                <mxCell id="72" value="12) Pass the request into&amp;nbsp;&lt;br&gt;app" style="text;html=1;align=center;verticalAlign=middle;resizable=0;points=[];autosize=1;" parent="1" vertex="1">
                    <mxGeometry x="850" y="1350" width="150" height="30" as="geometry"/>
                </mxCell>
            </root>
        </mxGraphModel>
    </diagram>
</mxfile>